# xmcd
#
# Track frame offsets: 
#        150
#        12187
#        24600
#        36787
#        50062
#        61987
#        72712
#        84600
#        94912
#        106925
#        119250
#        131812
#        144975
#        156225
#        165525
#
# Disc length: 2379 seconds
#
# Revision: 4
# Processed by: cddbd v1.5.2PL0 Copyright (c) Steve Scherf et al.
# Submitted via: ExactAudioCopy v0.99pb5
#
DISCID=d109490f
DTITLE=Flatt and Scruggs - Don't Get Above Your Raisin (1950-58)
DYEAR=1992
DGENRE=Bluegrass
TTITLE0=Come Back Darling
TTITLE1=We Can't Be Darlings Any More
TTITLE2=Don't Get Above Your Raisin'
TTITLE3='Tis Sweet To Be Remembered
TTITLE4=My Darling's Last Goodbye
TTITLE5=Get In Line Brother (If You Want To Go Home)
TTITLE6=Before I Met You
TTITLE7=Foggy Mountain Chimes
TTITLE8=I Don't Care Any More
TTITLE9=Why Did You Wander?
TTITLE10=Thinking About You
TTITLE11=I'm Gonna Settle Down
TTITLE12=You're Not A Drop In The Bucket
TTITLE13=Foggy Mountain Special
TTITLE14=Reunion In Heaven
EXTD=
EXTT0=
EXTT1=
EXTT2=
EXTT3=
EXTT4=
EXTT5=
EXTT6=
EXTT7=
EXTT8=
EXTT9=
EXTT10=
EXTT11=
EXTT12=
EXTT13=
EXTT14=
PLAYORDER=
